<?xml version="1.0" encoding="utf-8"?>
<!-- Generator: Adobe Illustrator 24.2.3, SVG Export Plug-In . SVG Version: 6.00 Build 0)  -->
<svg version="1.1" id="Layer_1" xmlns="http://www.w3.org/2000/svg" xmlns:xlink="http://www.w3.org/1999/xlink" x="0px" y="0px"
	 viewBox="0 0 460 404" style="enable-background:new 0 0 460 404;" xml:space="preserve">
<path d="M408.7,312.8l14.7-1.2l34-2.7c0,0,2.6-3,2.6-6C460,299.9,381,0,381,0s-1.1,0.5-4.2,0C373.7-0.5,85.2,4.8,85.2,4.8
	s-6.2-1-10,14.2L3.6,308.5c0,0-18.1,72,26.7,92.8c8.3,3.9,409.9,0,409.9,0s3.9-3.4,0-9.8c-16.5-27.3-16.7-78.4-16.8-79.9
	c-5.2,10.7-12.9,32.5-10.2,48.6c1.9,11.7,2.8,21.8,7.8,32.7c2.5,5.4-382.2,0-382.2,0s-47.5-31.1-16.6-80.3L408.7,312.8L408.7,312.8
	L408.7,312.8z M83.4,22.4c0.1-0.4,1.8-5.6,1.9-5.9l1.5-3.2c0.5-1.1,2.4-2.7,3.6-2.7c25.4-0.6,281.7-6.2,285-4.2
	c0,0,75.2,282.7,75.9,285.4c1.7,7-0.5,6.3-0.5,6.3l-424.2,0.6h-3.5L83.4,22.4L83.4,22.4z"/>
<path d="M416.8,352.8l-349.7,0.8l350.1-2.5L416.8,352.8L416.8,352.8z M84.6,370h285.8l-149.7,1.3L84.6,370L84.6,370z M45.2,336.8
	h340.3L207.3,338L45.2,336.8L45.2,336.8z M396.5,263.9l-97.6-0.1v-2.2l95,0.1L376,167.2l2.2-0.4L396.5,263.9L396.5,263.9z"/>
<path d="M410.8,248.3l-37.1,0v-2.2H408L388.9,155l2.2-0.4L410.8,248.3z"/>
<path d="M381,280.2l-108.7-0.1v-2.2l106.1,0.1l-5.1-30.6l2.2-0.4L381,280.2L381,280.2z M418.3,280.2l-20.9,0l-3.5-18.5l20.5,0
	L418.3,280.2L418.3,280.2z M399.2,278h16.4l-3-14h-16.1L399.2,278L399.2,278L399.2,278z M169.9,263.7l-97.8-0.1l18.8-97.1l2.2,0.4
	l-18.3,94.4l95.1,0.1V263.7L169.9,263.7z"/>
<path d="M95,248l-37.1-0.1L78,154.2l2.2,0.5l-19.6,91.1l34.4,0.1L95,248L95,248z"/>
<path d="M196.2,280l-108.7-0.1l5.7-33.2l2.2,0.4l-5.3,30.6l106,0.1V280z M71.2,279.8l-20.9,0l4-18.5h20.5L71.2,279.8L71.2,279.8z
	 M53,277.6h16.4l2.7-14H56C56,263.5,53,277.6,53,277.6z M363.9,97.6l-11.9-62.3l-69.2-0.1V33l71,0.1l12.2,64.1L363.9,97.6
	L363.9,97.6z"/>
<path d="M380.2,108.1l-13.6-64.2l-26,0l0-2.2l27.8,0.1l14,65.9L380.2,108.1L380.2,108.1z"/>
<path d="M340.1,42.9l-2.7-16l-74.6-0.1v-2.2l76.5,0.1l3,17.8C342.3,42.5,340.1,42.9,340.1,42.9z M367.7,35.3h-15.6l-2-10.6h15.4
	L367.7,35.3L367.7,35.3z M353.9,33.1h11l-1.3-6.1h-10.9L353.9,33.1L353.9,33.1z M107.8,97.3l-2.2-0.4l12.3-64h0.9l69.9,0.1v2.2
	l-69-0.1C119.8,35.1,107.8,97.3,107.8,97.3z"/>
<path d="M91.5,107.7l-2.2-0.5l14-65.9l27.8,0v2.2l-26,0C105.2,43.6,91.5,107.7,91.5,107.7z"/>
<path d="M131.7,42.7l-2.2-0.4l3-17.8h0.9l75.6,0.1v2.2l-74.6-0.1L131.7,42.7L131.7,42.7z M119.8,35.1h-15.6l2.3-10.6h15.4
	C121.8,24.5,119.8,35.1,119.8,35.1z M106.9,32.8h11l1.2-6.1h-10.9L106.9,32.8C106.9,32.8,106.9,32.8,106.9,32.8z M396.5,263.9
	l-97.6-0.1v-2.2l95,0.1L376,167.2l2.2-0.4L396.5,263.9L396.5,263.9z"/>
<path d="M410.8,248.3l-37.1,0v-2.2H408L388.9,155l2.2-0.4L410.8,248.3z"/>
<path d="M381,280.2l-108.7-0.1v-2.2l106.1,0.1l-5.1-30.6l2.2-0.4L381,280.2L381,280.2z M418.3,280.2l-20.9,0l-3.5-18.5l20.5,0
	L418.3,280.2L418.3,280.2z M399.2,278h16.4l-3-14h-16.1L399.2,278L399.2,278L399.2,278z M169.9,263.7l-97.8-0.1l18.8-97.1l2.2,0.4
	l-18.3,94.4l95.1,0.1V263.7L169.9,263.7z"/>
<path d="M95,248l-37.1-0.1L78,154.2l2.2,0.5l-19.6,91.1l34.4,0.1L95,248L95,248z"/>
<path d="M196.2,280l-108.7-0.1l5.7-33.2l2.2,0.4l-5.3,30.6l106,0.1V280z M71.2,279.8l-20.9,0l4-18.5h20.5L71.2,279.8L71.2,279.8z
	 M53,277.6h16.4l2.7-14H56C56,263.5,53,277.6,53,277.6z M363.9,97.6l-11.9-62.3l-69.2-0.1V33l71,0.1l12.2,64.1L363.9,97.6
	L363.9,97.6z"/>
<path d="M380.2,108.1l-13.6-64.2l-26,0l0-2.2l27.8,0.1l14,65.9L380.2,108.1L380.2,108.1z"/>
<path d="M340.1,42.9l-2.7-16l-74.6-0.1v-2.2l76.5,0.1l3,17.8C342.3,42.5,340.1,42.9,340.1,42.9z M367.7,35.3h-15.6l-2-10.6h15.4
	L367.7,35.3L367.7,35.3z M353.9,33.1h11l-1.3-6.1h-10.9L353.9,33.1L353.9,33.1z M107.8,97.3l-2.2-0.4l12.3-64h0.9l69.9,0.1v2.2
	l-69-0.1C119.8,35.1,107.8,97.3,107.8,97.3z"/>
<path d="M91.5,107.7l-2.2-0.5l14-65.9l27.8,0v2.2l-26,0C105.2,43.6,91.5,107.7,91.5,107.7z"/>
<path d="M131.7,42.7l-2.2-0.4l3-17.8h0.9l75.6,0.1v2.2l-74.6-0.1L131.7,42.7L131.7,42.7z M119.8,35.1h-15.6l2.3-10.6h15.4
	C121.8,24.5,119.8,35.1,119.8,35.1z M106.9,32.8h11l1.2-6.1h-10.9L106.9,32.8C106.9,32.8,106.9,32.8,106.9,32.8z M300,129.6
	c-3.9-16.1-14.3-30-27.9-38.1c-9.8-5.9-21.3-9-34.2-9.5l-0.6-15.4c0,0-2,5.9-6.4,11.6l0,3.8c-10.5,0.4-20.8,2.4-29.2,6.8
	c-15.4,7.9-27.1,22.9-30.5,40.9c-5.5,28.6,10.9,56.7,42.8,66.4c4.7,1.4,11.8,2.2,18.1,2.5l0.4,39.6c0,0,5.5-20.9,10.2-30.1l-0.4-9.4
	c5.7-0.4,11.2-1.7,16.4-3.2C291.3,186.4,307,158.8,300,129.6L300,129.6z M193.9,170c-8.5-11.7-11.2-26.6-9.1-41.3
	c3.7-25,22.4-42.5,46.1-43.9l1.1,106.4C216.7,189.8,202.5,181.9,193.9,170z M280.1,167.8c-7.8,13-21.9,21.6-38,23.2L238,84.8
	c22.9,1.8,42.6,19.3,47.3,43.9C288,142.3,286.8,156.6,280.1,167.8z"/>
</svg>
