<svg width="783" height="120" viewBox="0 0 783 120" fill="none" xmlns="http://www.w3.org/2000/svg">
<path d="M48.6096 50.0131H93.7868V38.6012H48.621C48.621 39.7672 48.6096 50.1204 48.6096 50.0131Z" fill="#0F1410"/>
<path d="M125.09 26.5047L97.4846 14.8544C95.6701 13.9682 93.6908 13.4722 91.6738 13.3981H51.1982C49.18 13.4723 47.1995 13.9683 45.3836 14.8544L17.7823 26.5047C16.447 27.1859 15.3298 28.23 14.5584 29.5176C13.7871 30.8053 13.3927 32.2845 13.4204 33.7862V80.3953C13.4204 81.8516 13.4204 83.3078 14.8731 84.7641L23.5931 93.5019C25.0458 94.9582 26.1363 94.9582 27.9512 94.9582H47.9192C47.9192 96.2102 47.9192 106.714 47.9192 106.601H95.1225V94.9431H47.957V83.3079H26.4985C25.0458 83.3079 25.0458 81.8515 25.0458 81.8515V26.5047C25.0458 26.5047 25.0458 25.0484 26.4985 25.0484H116.377C117.83 25.0484 117.83 26.5047 117.83 26.5047V81.8515C117.83 81.8515 117.83 83.3079 116.377 83.3079H95.1339V94.9582H114.925C116.74 94.9582 117.83 94.9582 119.283 93.5019L127.999 84.7641C129.452 83.3078 129.452 81.8516 129.452 80.3953V33.7862C129.479 32.2846 129.084 30.8055 128.313 29.518C127.542 28.2304 126.425 27.1863 125.09 26.5047Z" fill="#0F1410"/>
<path d="M212.179 45.2906V74.7094C212.174 74.8862 212.206 75.062 212.272 75.2262C212.338 75.3904 212.436 75.5395 212.562 75.6646C212.687 75.7896 212.837 75.8879 213.002 75.9536C213.166 76.0193 213.343 76.051 213.52 76.0467H255.105V86.7862H214.861C214.133 86.8763 213.394 86.8029 212.697 86.5716C212.001 86.3402 211.366 85.9567 210.837 85.449L202.788 77.3839C202.288 76.8524 201.913 76.2167 201.69 75.5228C201.468 74.829 201.402 74.0943 201.499 73.3722V46.6278C201.409 45.9018 201.483 45.1648 201.715 44.4707C201.947 43.7766 202.332 43.143 202.841 42.6162L210.837 34.5511C211.366 34.0434 212.001 33.6598 212.697 33.4285C213.394 33.1971 214.133 33.1238 214.861 33.2139H255.105V43.9534H213.52C213.343 43.9491 213.166 43.9807 213.002 44.0464C212.837 44.1121 212.687 44.2105 212.562 44.3355C212.436 44.4605 212.338 44.6097 212.272 44.7738C212.206 44.938 212.174 45.1138 212.179 45.2906Z" fill="#0F1410"/>
<path d="M276.105 66.7087L301.568 55.9784C303.242 55.1623 305.067 54.7054 306.928 54.6371H313.629C313.807 54.6485 313.985 54.6234 314.153 54.5634C314.321 54.5034 314.475 54.4096 314.605 54.288C314.736 54.1663 314.84 54.0193 314.911 53.8559C314.983 53.6925 315.02 53.5161 315.021 53.3377V45.29C315.026 45.1127 314.994 44.9363 314.928 44.7717C314.862 44.607 314.764 44.4574 314.638 44.332C314.513 44.2066 314.364 44.1079 314.199 44.042C314.035 43.9761 313.858 43.9444 313.681 43.9487H272.095V33.1765H290.857C292.7 33.2375 294.511 33.6799 296.176 34.4759L321.638 45.2062C322.872 45.8306 323.905 46.7917 324.616 47.9784C325.328 49.1651 325.689 50.529 325.659 51.9126V73.3732C325.749 74.1015 325.676 74.8407 325.444 75.5369C325.212 76.2331 324.827 76.8686 324.319 77.397L316.278 85.4448C315.75 85.954 315.115 86.3387 314.419 86.5708C313.724 86.8029 312.985 86.8764 312.257 86.7861H285.454C284.727 86.8764 283.988 86.8029 283.293 86.5708C282.597 86.3387 281.962 85.954 281.434 85.4448L273.425 77.439C272.916 76.9106 272.531 76.275 272.3 75.5788C272.068 74.8826 271.994 74.1434 272.084 73.4151C272.054 72.0315 272.416 70.6676 273.127 69.4809C273.839 68.2942 274.871 67.3331 276.105 66.7087ZM284.146 76.1396H313.629C313.806 76.1439 313.982 76.1122 314.147 76.0463C314.311 75.9804 314.461 75.8818 314.586 75.7563C314.711 75.6309 314.81 75.4814 314.876 75.3167C314.942 75.152 314.973 74.9756 314.969 74.7983V66.7506C314.973 66.5733 314.942 66.3969 314.876 66.2322C314.81 66.0676 314.711 65.918 314.586 65.7926C314.461 65.6671 314.311 65.5685 314.147 65.5026C313.982 65.4368 313.806 65.405 313.629 65.4093H284.146C283.969 65.405 283.792 65.4368 283.628 65.5026C283.463 65.5685 283.314 65.6671 283.189 65.7926C283.063 65.918 282.965 66.0676 282.899 66.2322C282.833 66.3969 282.801 66.5733 282.806 66.7506V74.7983C282.807 74.9721 282.843 75.1439 282.911 75.3037C282.98 75.4635 283.079 75.6081 283.204 75.729C283.328 75.8499 283.476 75.9448 283.638 76.0081C283.799 76.0714 283.972 76.1019 284.146 76.0977V76.1396Z" fill="#0F1410"/>
<path d="M564.293 86.8235H510.644V76.1001H530.762C530.94 76.1044 531.116 76.0728 531.281 76.0073C531.445 75.9417 531.595 75.8435 531.72 75.7186C531.846 75.5938 531.944 75.4449 532.01 75.2809C532.076 75.117 532.108 74.9415 532.104 74.7649V45.3905C532.108 45.214 532.076 45.0384 532.01 44.8745C531.944 44.7106 531.846 44.5617 531.72 44.4368C531.595 44.312 531.445 44.2138 531.281 44.1482C531.116 44.0826 530.94 44.051 530.762 44.0553H501.493L512.273 33.588L529.421 33.3737C530.149 33.2837 530.889 33.357 531.585 33.588C532.281 33.819 532.916 34.202 533.445 34.7089L541.492 42.7201C542.001 43.2461 542.386 43.8788 542.618 44.5718C542.85 45.2648 542.924 46.0007 542.833 46.7257V74.7649C542.829 74.9415 542.861 75.117 542.927 75.2809C542.993 75.4449 543.091 75.5938 543.217 75.7186C543.342 75.8435 543.492 75.9417 543.656 76.0073C543.821 76.0728 543.997 76.1044 544.175 76.1001H564.293V86.8235ZM542.833 12.0417V22.7233H532.104V12L542.833 12.0417Z" fill="#0F1410"/>
<path d="M589.018 86.7868C588.292 86.8758 587.555 86.8023 586.861 86.5715C586.167 86.3407 585.534 85.9586 585.007 85.453L576.966 77.4085C576.457 76.8831 576.072 76.2511 575.84 75.5588C575.609 74.8665 575.535 74.1313 575.625 73.4071V52.0662C575.594 50.6915 575.954 49.3359 576.664 48.1559C577.373 46.976 578.404 46.0196 579.636 45.3972L605.112 34.6851C606.786 33.8736 608.612 33.4192 610.473 33.3513H617.174C617.352 33.3542 617.529 33.3213 617.693 33.2546C617.858 33.1879 618.007 33.0888 618.132 32.9633C618.257 32.8378 618.356 32.6883 618.422 32.524C618.487 32.3597 618.519 32.1839 618.515 32.0071V12H629.237V86.7868H589.018ZM618.515 74.7826V45.3972C618.519 45.2209 618.487 45.0455 618.421 44.8818C618.356 44.718 618.257 44.5693 618.132 44.4445C618.006 44.3198 617.857 44.2217 617.692 44.1562C617.528 44.0907 617.352 44.0591 617.174 44.0634H587.688C587.511 44.0591 587.335 44.0907 587.17 44.1562C587.005 44.2217 586.856 44.3198 586.731 44.4445C586.605 44.5693 586.507 44.718 586.441 44.8818C586.375 45.0455 586.343 45.2209 586.348 45.3972V74.7409C586.343 74.9173 586.375 75.0926 586.441 75.2564C586.507 75.4201 586.605 75.5689 586.731 75.6936C586.856 75.8183 587.005 75.9164 587.17 75.9819C587.335 76.0475 587.511 76.079 587.688 76.0747H617.174C617.352 76.079 617.528 76.0475 617.692 75.9819C617.857 75.9164 618.006 75.8183 618.132 75.6936C618.257 75.5689 618.356 75.4201 618.421 75.2564C618.487 75.0926 618.519 74.9173 618.515 74.7409V74.7826Z" fill="#0F1410"/>
<path d="M699.78 46.5614V89.314C699.81 90.6908 699.449 92.0481 698.738 93.229C698.028 94.4098 696.996 95.3662 695.764 95.9875L670.326 106.665C668.653 107.477 666.829 107.931 664.97 108H646.216V97.2806H687.731C687.908 97.2849 688.084 97.2532 688.248 97.1877C688.412 97.1221 688.562 97.024 688.687 96.8992C688.812 96.7744 688.911 96.6255 688.976 96.4617C689.042 96.2978 689.074 96.1223 689.069 95.9459V87.9375C689.074 87.7611 689.042 87.5856 688.976 87.4217C688.911 87.2579 688.812 87.109 688.687 86.9842C688.562 86.8594 688.412 86.7612 688.248 86.6957C688.084 86.6301 687.908 86.5985 687.731 86.6028H681.036C679.177 86.5361 677.353 86.0814 675.681 85.2681L650.243 74.5904C649.009 73.9705 647.975 73.0148 647.262 71.8338C646.55 70.6527 646.187 69.2948 646.216 67.9168V46.5614C646.126 45.8367 646.2 45.101 646.431 44.4083C646.663 43.7155 647.047 43.0831 647.555 42.5572L655.599 34.549C656.124 34.0418 656.756 33.6586 657.449 33.4276C658.143 33.1966 658.879 33.1237 659.605 33.2142H686.392C687.119 33.1243 687.857 33.1975 688.552 33.4285C689.246 33.6594 689.881 34.0422 690.408 34.549L698.441 42.5572C698.961 43.075 699.353 43.7065 699.585 44.4016C699.818 45.0966 699.885 45.8361 699.78 46.5614ZM687.731 43.892H658.266C658.089 43.8877 657.913 43.9192 657.748 43.9848C657.584 44.0504 657.435 44.1485 657.31 44.2733C657.184 44.3981 657.086 44.547 657.02 44.7109C656.954 44.8747 656.923 45.0502 656.927 45.2267V74.5904C656.923 74.7669 656.954 74.9423 657.02 75.1062C657.086 75.2701 657.184 75.4189 657.31 75.5437C657.435 75.6685 657.584 75.7667 657.748 75.8323C657.913 75.8978 658.089 75.9294 658.266 75.9251H687.731C687.908 75.9294 688.084 75.8978 688.248 75.8323C688.412 75.7667 688.562 75.6685 688.687 75.5437C688.812 75.4189 688.911 75.2701 688.976 75.1062C689.042 74.9423 689.074 74.7669 689.069 74.5904V45.2267C689.074 45.0502 689.042 44.8747 688.976 44.7109C688.911 44.547 688.812 44.3981 688.687 44.2733C688.562 44.1485 688.412 44.0504 688.248 43.9848C688.084 43.9192 687.908 43.8877 687.731 43.892Z" fill="#0F1410"/>
<path d="M766.38 53.3437L740.918 64.0154C739.245 64.8302 737.42 65.2864 735.56 65.3546H728.884C728.707 65.3503 728.531 65.382 728.366 65.4478C728.202 65.5136 728.052 65.612 727.927 65.7373C727.802 65.8625 727.703 66.0118 727.637 66.1763C727.572 66.3407 727.54 66.5168 727.544 66.6938V74.729C727.54 74.906 727.572 75.0821 727.637 75.2465C727.703 75.4109 727.802 75.5603 727.927 75.6855C728.052 75.8107 728.202 75.9092 728.366 75.975C728.531 76.0408 728.707 76.0724 728.884 76.0681H770.419V86.8235H751.635C749.775 86.7553 747.95 86.2992 746.276 85.4844L720.826 74.729C719.592 74.1055 718.561 73.1459 717.849 71.9611C717.138 70.7762 716.777 69.4144 716.807 68.033V46.6059C716.717 45.8788 716.791 45.1407 717.022 44.4456C717.254 43.7505 717.638 43.1159 718.147 42.5883L726.184 34.5532C726.712 34.0447 727.346 33.6606 728.042 33.4289C728.737 33.1972 729.475 33.1238 730.202 33.214H756.993C757.721 33.1237 758.461 33.197 759.158 33.4287C759.855 33.6604 760.492 34.0445 761.022 34.5532L769.059 42.5883C770.398 43.9275 770.398 44.9319 770.398 46.6059C770.436 47.9944 770.079 49.3651 769.367 50.5581C768.656 51.7511 767.62 52.7172 766.38 53.3437ZM758.332 43.9275H728.884C728.707 43.9232 728.531 43.9549 728.366 44.0207C728.202 44.0865 728.052 44.185 727.927 44.3102C727.802 44.4354 727.703 44.5848 727.637 44.7492C727.572 44.9136 727.54 45.0897 727.544 45.2667V53.3437C727.54 53.5208 727.572 53.6968 727.637 53.8613C727.703 54.0257 727.802 54.175 727.927 54.3002C728.052 54.4255 728.202 54.524 728.366 54.5897C728.531 54.6555 728.707 54.6872 728.884 54.6829H758.353C758.531 54.6872 758.707 54.6555 758.872 54.5898C759.037 54.5242 759.187 54.4259 759.313 54.3008C759.439 54.1757 759.539 54.0265 759.606 53.862C759.673 53.6976 759.706 53.5213 759.703 53.3437V45.3086C759.712 45.1257 759.683 44.9431 759.617 44.7722C759.551 44.6013 759.451 44.446 759.322 44.3161C759.193 44.1862 759.038 44.0845 758.868 44.0176C758.697 43.9507 758.515 43.92 758.332 43.9275Z" fill="#0F1410"/>
<path d="M499.349 33.2139H469.404C468.656 33.1237 467.896 33.1971 467.181 33.4289C466.465 33.6606 465.812 34.0447 465.269 34.5531L457 42.5883C456.476 43.1159 456.081 43.7504 455.843 44.4455C455.604 45.1406 455.529 45.8787 455.621 46.6058V86.8235H466.648V45.2666C466.643 45.0896 466.676 44.9135 466.743 44.7491C466.811 44.5847 466.913 44.4353 467.041 44.3101C467.17 44.1849 467.324 44.0864 467.493 44.0206C467.662 43.9548 467.844 43.9232 468.026 43.9275H488.323L499.349 33.2139Z" fill="#0F1410"/>
<path d="M421.289 44.0572H441.465V33.3749H421.289C421.108 33.3893 420.925 33.3642 420.755 33.3015C420.584 33.2388 420.43 33.1399 420.302 33.0118C420.174 32.8837 420.075 32.7295 420.013 32.5598C419.952 32.3901 419.928 32.209 419.944 32.0292V12H409.183V32.0292C409.199 32.209 409.175 32.3901 409.113 32.5598C409.051 32.7295 408.953 32.8837 408.825 33.0118C408.697 33.1399 408.542 33.2388 408.372 33.3015C408.201 33.3642 408.019 33.3893 407.838 33.3749H395.785L384.992 44.0572H407.838C408.018 44.0431 408.199 44.0679 408.369 44.13C408.539 44.1921 408.693 44.29 408.821 44.4169C408.948 44.5439 409.047 44.6968 409.11 44.8652C409.172 45.0336 409.197 45.2135 409.183 45.3925V73.4334C409.082 74.1563 409.148 74.8924 409.375 75.5863C409.603 76.2803 409.986 76.9138 410.497 77.4392L418.567 85.4509C419.097 85.9579 419.734 86.3409 420.432 86.5719C421.131 86.8029 421.872 86.8761 422.602 86.7862H441.434V76.104H421.257C421.079 76.1082 420.903 76.0766 420.737 76.0111C420.572 75.9455 420.422 75.8473 420.296 75.7224C420.171 75.5975 420.072 75.4486 420.006 75.2847C419.94 75.1208 419.908 74.9452 419.912 74.7687V45.3925C419.897 45.2107 419.923 45.0278 419.987 44.857C420.052 44.6861 420.153 44.5314 420.285 44.4039C420.416 44.2765 420.574 44.1793 420.748 44.1193C420.921 44.0594 421.106 44.0382 421.289 44.0572Z" fill="#0F1410"/>
<path d="M383.58 33.2177H355.967C355.25 33.1236 354.52 33.1912 353.832 33.4156C353.144 33.6399 352.513 34.0154 351.987 34.5149L344.005 42.5495C343.5 43.0771 343.118 43.7115 342.888 44.4066C342.658 45.1017 342.585 45.8397 342.675 46.5668V86.8235H353.317V45.2696C353.313 45.0925 353.344 44.9165 353.409 44.7521C353.475 44.5876 353.573 44.4383 353.697 44.3131C353.821 44.1879 353.97 44.0894 354.133 44.0236C354.296 43.9578 354.471 43.9262 354.647 43.9305H372.949L383.58 33.2177Z" fill="#0F1410"/>
</svg>
