<svg width="130" height="24" viewBox="0 0 130 24" fill="none" xmlns="http://www.w3.org/2000/svg">
<path d="M7.27979 3.505H32.3012V4.56473C32.3012 4.7546 32.2215 4.93321 32.0848 5.05848L29.8443 7.07166C29.5519 7.39824 29.1493 7.58439 28.7316 7.58439H26.9544C26.9544 7.58439 26.9506 9.05748 26.9506 9.91775C26.9506 10.7779 26.5985 11.7067 26.5985 11.7067L26.8385 11.9467C27.0956 11.5937 28.2316 10.1938 28.986 10.1938L31.8379 10.1786V13.8174L26.9506 13.8743V21L26.0962 20.1491C25.1224 19.181 24.1469 18.2145 23.176 17.2435V10.4255C23.176 9.41031 23.4012 8.58441 23.6084 7.67736L23.6088 7.6755L23.6102 7.66973L23.6116 7.66405C23.6135 7.65703 23.6152 7.65084 23.6148 7.64414C23.6146 7.63867 23.6129 7.63289 23.6088 7.62618C23.583 7.58738 23.4768 7.54869 23.3756 7.52929C23.2983 7.51453 23.224 7.51102 23.1911 7.52743C22.6491 7.79167 22.0734 7.8903 21.4765 7.90045C20.353 7.91941 19.2267 7.91924 18.1032 7.90045C17.5067 7.89026 16.9314 7.79144 16.3899 7.52743C16.3139 7.48946 16.0177 7.55777 15.9722 7.62618C15.9608 7.64517 15.9684 7.65652 15.9722 7.6755L15.9726 7.67736C16.1798 8.58402 16.4051 9.41919 16.4051 10.4255V17.2435C15.1499 18.4987 13.8882 19.7474 12.6304 21V13.8743L7.74309 13.8174V10.1786L10.595 10.1938C11.3494 10.1938 12.4855 11.5937 12.7425 11.9467L12.9825 11.7067C12.9825 11.7067 12.6304 10.7779 12.6304 9.91775C12.6304 9.05748 12.6266 7.58439 12.6266 7.58439H10.8494C10.4317 7.58439 10.0291 7.39824 9.73676 7.07166L7.49622 5.05848C7.35955 4.93321 7.27979 4.7546 7.27979 4.56473V3.505Z" fill="#071E3F"/>
<path fill-rule="evenodd" clip-rule="evenodd" d="M72.6347 3C66.9993 3 62.4006 6.5628 62.4006 11.7893C62.4006 17.0157 66.9347 20.5557 72.6347 20.5557C78.3347 20.5557 82.8689 16.9739 82.8689 11.7893C82.8689 6.60459 78.2701 3 72.6347 3ZM72.6575 6.60839C76.1549 6.60839 78.6803 8.91775 78.6803 11.7893C78.6803 14.7481 76.0258 16.9512 72.6575 16.9512C69.2891 16.9512 66.5702 14.7899 66.5702 11.7893C66.5702 8.78861 69.16 6.60839 72.6575 6.60839Z" fill="#071E3F"/>
<path fill-rule="evenodd" clip-rule="evenodd" d="M42.8398 3.34565V20.1911H50.9132C56.7879 20.1911 60.2626 16.6701 60.2626 11.6601C60.2626 7.10217 57.4145 3.34565 50.6778 3.34565H42.8398ZM50.4386 16.6473C49.3183 16.6473 48.0841 16.6473 46.7474 17.2512V17.255L46.2955 16.822C47.1576 13.4947 47.1348 10.061 46.2728 6.52103L46.7474 6.30452C47.8677 6.88566 48.7563 6.88566 49.6829 6.88566C52.231 6.88566 56.0968 6.88566 56.0968 11.831C56.0968 15.956 53.2449 16.6473 50.4386 16.6473Z" fill="#071E3F"/>
<path fill-rule="evenodd" clip-rule="evenodd" d="M102.255 11.7893C102.255 6.5628 106.854 3 112.489 3C118.124 3 122.723 6.60459 122.723 11.7893C122.723 16.9739 118.189 20.5557 112.489 20.5557C106.789 20.5557 102.255 17.0157 102.255 11.7893ZM118.535 11.7893C118.535 8.91775 116.009 6.60839 112.512 6.60839C109.014 6.60839 106.424 8.78861 106.424 11.7893C106.424 14.7899 109.143 16.9512 112.512 16.9512C115.88 16.9512 118.535 14.7481 118.535 11.7893Z" fill="#071E3F"/>
<path d="M85.3372 3.34567L99.346 3.36467V13.5137C99.346 15.3939 99.346 20.5748 92.7195 20.5748C88.5764 20.5748 85.3372 18.4173 85.3372 14.638V11.7893L89.2676 11.7741V14.0759C89.2676 15.675 90.4979 16.9702 92.5258 16.9702C95.1802 16.9702 95.3967 15.2192 95.3967 14.0531V9.68504C95.3967 8.56149 95.5972 7.66818 95.9511 6.60462C95.9549 6.59322 95.9511 6.58562 95.9397 6.58182C95.8524 6.54322 95.5105 6.31976 95.4271 6.36153C94.4714 6.85592 93.4436 6.97685 92.3853 6.97685H85.3372V3.34567Z" fill="#071E3F"/>
<path d="M19.7905 14.3036C21.1306 14.3036 22.2168 13.2171 22.2168 11.8768C22.2168 10.5365 21.1306 9.44995 19.7905 9.44995C18.4505 9.44995 17.3643 10.5365 17.3643 11.8768C17.3643 13.2171 18.4505 14.3036 19.7905 14.3036Z" fill="#FF2F42"/>
</svg>
